<svg width="139" height="146" viewBox="0 0 139 146" fill="none" xmlns="http://www.w3.org/2000/svg">
<path d="M110.343 145.468H28.3056C28.0073 145.459 27.7152 145.38 27.4536 145.236C27.192 145.092 26.9683 144.889 26.8005 144.642C26.6559 144.38 26.5801 144.086 26.5801 143.786C26.5801 143.487 26.6559 143.192 26.8005 142.93C32.5254 130.477 49.6705 122.126 69.4126 122.126C89.1546 122.126 106.3 130.477 112.054 142.93C112.192 143.195 112.263 143.488 112.263 143.786C112.263 144.084 112.192 144.378 112.054 144.642C111.892 144.894 111.67 145.102 111.407 145.246C111.144 145.39 110.849 145.467 110.549 145.468H110.343ZM31.522 141.898H107.539C101.313 132.218 86.2333 125.697 69.5307 125.697C52.8282 125.697 37.7781 132.218 31.522 141.898Z" fill="#0081A0"/>
<path d="M69.3239 125.698C69.0888 125.698 68.8562 125.651 68.6394 125.56C68.4227 125.469 68.2261 125.336 68.0613 125.169C67.8965 125.001 67.7666 124.802 67.6794 124.584C67.5922 124.366 67.5491 124.132 67.553 123.897V57.9134C67.5491 57.6784 67.5922 57.445 67.6794 57.2267C67.7666 57.0085 67.8965 56.8098 68.0613 56.6423C68.2261 56.4747 68.4227 56.3417 68.6394 56.2509C68.8562 56.1601 69.0888 56.1132 69.3239 56.1133C69.5589 56.1132 69.7915 56.1601 70.0083 56.2509C70.2251 56.3417 70.4213 56.4747 70.5861 56.6423C70.7509 56.8098 70.8807 57.0085 70.9679 57.2267C71.0552 57.445 71.0983 57.6784 71.0944 57.9134V123.897C71.0944 124.375 70.9046 124.833 70.567 125.17C70.2294 125.508 69.7717 125.698 69.2943 125.698" fill="#0081A0"/>
<path d="M69.3239 113.186C68.8741 113.187 68.4406 113.016 68.1118 112.71C67.7829 112.403 67.583 111.982 67.5531 111.533C67.3758 104.236 70.1039 97.1663 75.1373 91.8796C82.1311 84.6792 93.1974 81.3446 108.041 81.9348C108.537 81.968 109.001 82.1898 109.339 82.5545C109.5 82.7445 109.62 82.9659 109.691 83.2046C109.762 83.4434 109.783 83.6943 109.752 83.9415C109.752 84.2366 105.533 112.92 69.3535 113.186H69.3239ZM104.736 85.417C92.5777 85.417 83.5181 88.368 77.7637 94.2699C73.8295 98.4136 71.4971 103.821 71.1831 109.526C97.3878 108.553 104.264 91.2304 105.857 85.3579H104.736" fill="#0081A0"/>
<path d="M69.296 96.8369C33.117 96.5714 28.9264 67.8878 28.8969 67.5927C28.862 67.3476 28.878 67.0978 28.944 66.8592C29.0101 66.6205 29.1246 66.3981 29.2805 66.2057C29.4438 66.02 29.6431 65.8694 29.8662 65.7629C30.0894 65.6564 30.332 65.5962 30.5791 65.586C45.334 64.9663 56.4885 68.3304 63.4823 75.5308C65.9759 78.1477 67.9295 81.2304 69.2308 84.6027C70.5321 87.975 71.1559 91.5708 71.0665 95.1844C71.0436 95.6358 70.8462 96.0605 70.5157 96.3689C70.1853 96.6773 69.7479 96.8452 69.296 96.8369ZM32.8219 69.0682C34.3269 74.9701 41.0256 92.2924 67.496 93.2367C67.179 87.5265 64.8351 82.1166 60.8858 77.9801C54.9838 71.8716 45.5111 68.8911 32.8219 69.1272" fill="#0081A0"/>
<path d="M69.3246 113.184C69.0414 113.19 68.7607 113.126 68.5084 112.998C68.256 112.869 68.0398 112.679 67.8787 112.446C67.6107 112.061 67.504 111.586 67.5811 111.123C67.6583 110.66 67.913 110.245 68.2915 109.968L88.6534 95.4192C89.0388 95.1512 89.5138 95.0445 89.9768 95.1217C90.4399 95.1988 90.8547 95.4539 91.1325 95.8324C91.2729 96.0205 91.3736 96.2351 91.4289 96.4632C91.4843 96.6914 91.4927 96.9283 91.4541 97.1598C91.4155 97.3914 91.3308 97.6128 91.2045 97.8107C91.0782 98.0085 90.9131 98.1788 90.7193 98.3112L70.3574 112.86C70.0594 113.081 69.6956 113.195 69.3246 113.184Z" fill="#0081A0"/>
<path d="M69.295 96.8359C68.8883 96.8407 68.4923 96.7052 68.1736 96.4523L47.5168 79.8087C47.3341 79.6651 47.1819 79.4865 47.0693 79.2833C46.9568 79.0801 46.8862 78.8563 46.8615 78.6253C46.8367 78.3942 46.8583 78.1607 46.9253 77.9382C46.9922 77.7157 47.1028 77.5089 47.2509 77.3299C47.5466 76.9613 47.9754 76.7238 48.4447 76.6686C48.914 76.6134 49.3864 76.7449 49.7595 77.0348L70.4164 93.6783C70.6 93.8246 70.7527 94.0058 70.8656 94.2116C70.9785 94.4173 71.0491 94.6435 71.0738 94.8769C71.0985 95.1103 71.0767 95.3463 71.0093 95.5712C70.942 95.796 70.8308 96.0053 70.6819 96.1867C70.5155 96.3935 70.3041 96.5594 70.0638 96.6719C69.8234 96.7844 69.5604 96.8406 69.295 96.8359Z" fill="#0081A0"/>
<path d="M69.266 59.6836C61.3535 59.6836 53.7647 56.5404 48.1697 50.9453C42.5746 45.3503 39.4316 37.7617 39.4316 29.8492C39.4316 21.9366 42.5746 14.3481 48.1697 8.75306C53.7647 3.15802 61.3535 0.0147551 69.266 0.0147546C69.5198 -0.0179319 69.7775 0.00383654 70.0222 0.0786049C70.2668 0.153373 70.4925 0.279352 70.6846 0.448288C70.8767 0.617225 71.0306 0.825248 71.136 1.05833C71.2414 1.29142 71.2959 1.54423 71.2959 1.80004C71.2959 2.05586 71.2414 2.30876 71.136 2.54184C71.0306 2.77493 70.8767 2.98286 70.6846 3.1518C70.4925 3.32073 70.2668 3.4468 70.0222 3.52157C69.7775 3.59634 69.5198 3.61811 69.266 3.58542C64.0716 3.58542 58.9937 5.12573 54.6747 8.01163C50.3556 10.8975 46.9893 14.9994 45.0015 19.7985C43.0136 24.5975 42.4935 29.8783 43.5069 34.9729C44.5203 40.0676 47.0215 44.7474 50.6945 48.4204C54.3676 52.0935 59.0475 54.5949 64.1422 55.6083C69.2368 56.6217 74.5177 56.1016 79.3167 54.1137C84.1158 52.1259 88.2175 48.7596 91.1034 44.4405C93.9893 40.1215 95.5299 35.0436 95.5299 29.8492C95.5858 29.4152 95.7978 29.0164 96.1264 28.7274C96.455 28.4384 96.8776 28.2791 97.3152 28.2791C97.7527 28.2791 98.1753 28.4384 98.5039 28.7274C98.8325 29.0164 99.0445 29.4152 99.1004 29.8492C99.0849 37.757 95.9364 45.3364 90.3448 50.928C84.7531 56.5197 77.1738 59.668 69.266 59.6836Z" fill="#0081A0"/>
<path d="M73.7216 3.93942C72.2467 3.71446 70.7575 3.59613 69.2655 3.58531C68.8316 3.5294 68.4328 3.31728 68.1438 2.98869C67.8548 2.6601 67.6953 2.23752 67.6953 1.79994C67.6953 1.36236 67.8548 0.939774 68.1438 0.611185C68.4328 0.282596 68.8316 0.0705598 69.2655 0.0146484C70.8469 0.0226553 72.4252 0.150825 73.987 0.398201C74.4566 0.43342 74.8931 0.653814 75.2003 1.01077C75.5074 1.36772 75.6602 1.83205 75.625 2.30164C75.5898 2.77123 75.3692 3.20756 75.0123 3.51471C74.6553 3.82186 74.1911 3.97464 73.7216 3.93942Z" fill="#0081A0"/>
<path d="M94.9979 20.465C94.6542 20.4614 94.3187 20.3594 94.0311 20.1712C93.7435 19.9829 93.5156 19.7162 93.3747 19.4026C92.5017 17.3772 91.3713 15.4729 90.0109 13.7368C89.8676 13.543 89.7634 13.3229 89.7051 13.089C89.6468 12.8551 89.6353 12.6121 89.6709 12.3737C89.7065 12.1353 89.7888 11.9062 89.913 11.6996C90.0371 11.493 90.2008 11.3128 90.3946 11.1694C90.5883 11.026 90.8084 10.9222 91.0423 10.8639C91.2762 10.8055 91.5193 10.7938 91.7577 10.8295C91.9961 10.8651 92.225 10.9474 92.4317 11.0715C92.6383 11.1957 92.8185 11.3593 92.9619 11.5531C94.4937 13.5306 95.7723 15.6917 96.7684 17.9862C96.8606 18.2011 96.9095 18.4322 96.9118 18.666C96.9142 18.8999 96.8699 19.1319 96.7821 19.3487C96.6943 19.5654 96.5647 19.7626 96.4003 19.9289C96.2359 20.0952 96.0401 20.2272 95.8243 20.3174C95.5999 20.4118 95.3595 20.4619 95.1161 20.465H94.9979ZM86.5877 9.48735C86.1926 9.47688 85.8107 9.34269 85.4959 9.10371C83.7634 7.75358 81.87 6.62363 79.8594 5.73963C79.6462 5.64663 79.4537 5.5125 79.2924 5.345C79.131 5.17751 79.0041 4.9799 78.9192 4.76342C78.7476 4.32622 78.7569 3.83879 78.9448 3.40833C79.1326 2.97787 79.4834 2.63961 79.9206 2.46805C80.3578 2.29649 80.8453 2.3057 81.2758 2.49353C83.5626 3.48685 85.7144 4.7659 87.6795 6.30024C88.0507 6.58636 88.293 7.00796 88.3539 7.4726C88.4147 7.93724 88.289 8.40711 88.0041 8.77914C87.8347 8.9942 87.62 9.16914 87.3752 9.29157C87.1303 9.414 86.8614 9.48087 86.5877 9.48735Z" fill="#0081A0"/>
<path d="M97.3288 31.6193C97.0938 31.6232 96.8604 31.5803 96.6422 31.4931C96.4239 31.4058 96.2251 31.2761 96.0575 31.1113C95.89 30.9465 95.7568 30.7499 95.666 30.5331C95.5751 30.3164 95.5287 30.0837 95.5287 29.8487C95.5381 28.4551 95.4292 27.0631 95.2038 25.6878C95.167 25.4572 95.1762 25.2217 95.2304 24.9946C95.2847 24.7674 95.383 24.5532 95.5201 24.3642C95.6571 24.1751 95.8298 24.0149 96.0287 23.8926C96.2276 23.7704 96.4487 23.6884 96.6793 23.6516C96.9099 23.6148 97.1456 23.6238 97.3727 23.678C97.5998 23.7322 97.814 23.8307 98.0031 23.9677C98.1922 24.1047 98.3524 24.2776 98.4746 24.4765C98.5969 24.6755 98.6788 24.8965 98.7156 25.1271C98.9764 26.6874 99.1047 28.2669 99.0993 29.8487C99.0993 30.3183 98.9126 30.7686 98.5806 31.1007C98.2485 31.4327 97.7984 31.6193 97.3288 31.6193Z" fill="#0081A0"/>
<path d="M69.2647 27.5181C67.3095 27.5181 65.398 26.9384 63.7723 25.8521C62.1466 24.7658 60.8797 23.2219 60.1315 21.4155C59.3833 19.6091 59.1874 17.6214 59.5688 15.7038C59.9503 13.7861 60.8919 12.0247 62.2745 10.6421C63.6571 9.25956 65.4184 8.31798 67.3361 7.93653C69.2537 7.55509 71.2414 7.75089 73.0478 8.49912C74.8542 9.24735 76.3981 10.5144 77.4844 12.1401C78.5707 13.7658 79.1504 15.6772 79.1504 17.6324C79.1427 20.2519 78.0985 22.7618 76.2463 24.6141C74.394 26.4663 71.8842 27.5104 69.2647 27.5181ZM69.2647 11.3173C68.0074 11.3114 66.7766 11.6794 65.7287 12.3743C64.6808 13.0692 63.8632 14.0597 63.3793 15.2202C62.8955 16.3808 62.7673 17.6589 63.0112 18.8924C63.255 20.1259 63.8598 21.2591 64.7489 22.1481C65.638 23.0372 66.7712 23.6421 68.0046 23.886C69.2381 24.1298 70.5163 24.0017 71.6768 23.5178C72.8373 23.0339 73.8281 22.2162 74.523 21.1683C75.2179 20.1204 75.5857 18.8898 75.5799 17.6324C75.5799 15.9575 74.9144 14.3513 73.7301 13.1669C72.5458 11.9826 70.9396 11.3173 69.2647 11.3173Z" fill="#0081A0"/>
<path d="M85.9982 47.2898C85.7632 47.2937 85.5298 47.2508 85.3116 47.1636C85.0934 47.0764 84.8949 46.9466 84.7273 46.7818C84.5598 46.617 84.4266 46.4205 84.3358 46.2037C84.2449 45.9869 84.1981 45.7542 84.1981 45.5192V40.6501C84.2041 38.6023 83.4548 36.6243 82.0937 35.0944C80.7326 33.5645 78.8552 32.5902 76.8207 32.3578C74.3182 32.1477 71.8066 32.0689 69.2959 32.1217C66.7655 32.0685 64.2339 32.1474 61.7117 32.3578C59.6797 32.5964 57.8061 33.5725 56.4462 35.101C55.0863 36.6296 54.3347 38.6041 54.3342 40.6501V45.3126C54.3342 45.7822 54.1479 46.2326 53.8158 46.5646C53.4838 46.8967 53.0333 47.0832 52.5637 47.0832C52.0941 47.0832 51.6439 46.8967 51.3119 46.5646C50.9798 46.2326 50.7932 45.7822 50.7932 45.3126V40.6501C50.7762 37.7274 51.8441 34.9024 53.7903 32.7218C55.7364 30.5413 58.4222 29.1603 61.328 28.8461C66.624 28.492 71.9378 28.492 77.2339 28.8461C80.1396 29.1603 82.8255 30.5413 84.7716 32.7218C86.7178 34.9024 87.786 37.7274 87.7691 40.6501V45.5192C87.7691 45.9888 87.5824 46.4391 87.2504 46.7711C86.9183 47.1032 86.4678 47.2898 85.9982 47.2898Z" fill="#0081A0"/>
<path d="M69.2657 54.3716C68.8075 54.3777 68.3641 54.2088 68.0261 53.8994L60.0882 46.2564C59.1445 45.3643 58.4928 44.2076 58.2189 42.9382C57.9451 41.6689 58.0617 40.3463 58.5536 39.1445C58.9832 37.9928 59.7516 36.9984 60.7578 36.2925C61.7641 35.5865 62.961 35.2022 64.1901 35.1902C66.0677 35.1726 67.8818 35.8687 69.2657 37.1378C70.6118 35.8839 72.3835 35.1878 74.2231 35.1902C75.4946 35.1604 76.7444 35.5243 77.8009 36.2322C78.8575 36.9401 79.6691 37.9573 80.1251 39.1445C80.6088 40.3476 80.7214 41.6681 80.4479 42.9356C80.1744 44.2032 79.5277 45.3597 78.5909 46.2564L70.623 53.8994C70.285 54.2088 69.8417 54.3777 69.3835 54.3716H69.2657ZM64.426 38.7314C63.8922 38.7339 63.3719 38.8991 62.9343 39.2049C62.4967 39.5107 62.1628 39.9425 61.9768 40.4429C61.7517 40.9897 61.6959 41.5915 61.8169 42.1703C61.9379 42.7491 62.2302 43.2782 62.6555 43.689L69.3835 50.1517L76.1118 43.689C76.5371 43.2782 76.8294 42.7491 76.9504 42.1703C77.0714 41.5915 77.0156 40.9897 76.7905 40.4429C76.617 39.9518 76.2986 39.5252 75.8769 39.2195C75.4553 38.9138 74.9506 38.7436 74.4299 38.7314C73.7127 38.7243 73.008 38.92 72.3971 39.2959C71.7863 39.6718 71.294 40.2127 70.9771 40.8561C70.8119 41.1311 70.5784 41.3586 70.2992 41.5166C70.0199 41.6746 69.7043 41.7576 69.3835 41.7576C69.0626 41.7576 68.7474 41.6746 68.4681 41.5166C68.1889 41.3586 67.9554 41.1311 67.7902 40.8561C67.4827 40.224 67.0048 39.6902 66.4105 39.3149C65.8162 38.9395 65.1289 38.7374 64.426 38.7314Z" fill="#0081A0"/>
<path d="M137.109 145.469H1.56987C1.13588 145.413 0.737095 145.201 0.448123 144.872C0.159151 144.543 0 144.121 0 143.683C0 143.246 0.159151 142.823 0.448123 142.495C0.737095 142.166 1.13588 141.954 1.56987 141.898H137.109C137.543 141.954 137.941 142.166 138.23 142.495C138.519 142.823 138.679 143.246 138.679 143.683C138.679 144.121 138.519 144.543 138.23 144.872C137.941 145.201 137.543 145.413 137.109 145.469Z" fill="#0081A0"/>
</svg>
