<svg width="64" height="145" viewBox="0 0 64 145" fill="none" xmlns="http://www.w3.org/2000/svg">
<g id="Group 49">
<g id="Group 47">
<path id="Vector" d="M21.8355 44.603C21.366 44.603 20.9154 44.4164 20.5834 44.0843C20.2513 43.7523 20.0645 44.603 20.0645 44.1334L20.0647 15.739C20.1745 14.1273 20.8924 12.6174 22.0729 11.5146C23.2535 10.4118 24.8086 9.79834 26.4241 9.79834C28.0396 9.79834 29.5948 10.4118 30.7753 11.5146C31.9558 12.6174 32.6737 14.1273 32.7836 15.739V40.3207C32.7836 40.7903 32.5969 41.2406 32.2649 41.5727C31.9328 41.9047 31.4826 42.0913 31.0131 42.0913C30.5435 42.0913 30.093 41.9047 29.7609 41.5727C29.4289 41.2406 29.2425 40.7903 29.2425 40.3207V15.739C29.2425 14.9955 28.947 14.2824 28.4212 13.7567C27.8955 13.231 27.1824 12.9356 26.4389 12.9356C25.6954 12.9356 24.9823 13.231 24.4566 13.7567C23.9308 14.2824 23.6356 14.9955 23.6356 15.739V42.8324C23.6356 43.0674 23.5888 43.3 23.498 43.5168C23.4072 43.7336 23.274 43.9302 23.1064 44.095C22.9389 44.2598 22.7404 44.3895 22.5221 44.4767C22.3039 44.5639 22.0705 44.6069 21.8355 44.603Z" fill="#0081A0"/>
<path id="Vector_2" d="M40.1902 42.0902C39.9566 42.0942 39.7246 42.0512 39.508 41.9636C39.2913 41.8761 39.0946 41.7457 38.9294 41.5805C38.7642 41.4153 38.6337 41.2185 38.5461 41.0019C38.4586 40.7853 38.4157 40.5533 38.4197 40.3196V5.94069C38.2256 5.35029 37.85 4.83621 37.3466 4.47177C36.8432 4.10734 36.2375 3.91117 35.6161 3.91117C34.9946 3.91117 34.3889 4.10734 33.8855 4.47177C33.3821 4.83621 33.0068 5.35029 32.8128 5.94069V40.2016C32.8128 40.4366 32.766 40.6693 32.6752 40.8861C32.5843 41.1029 32.4511 41.2994 32.2836 41.4642C32.116 41.629 31.9175 41.7588 31.6993 41.846C31.4811 41.9332 31.2477 41.9761 31.0127 41.9722C30.5431 41.9722 30.0926 41.7857 29.7606 41.4536C29.4285 41.1216 29.2422 40.6712 29.2422 40.2016V5.94069C29.352 4.32894 30.0696 2.81901 31.2501 1.71621C32.4306 0.613414 33.9858 0 35.6013 0C37.2168 0 38.7719 0.613414 39.9525 1.71621C41.133 2.81901 41.8509 4.32894 41.9607 5.94069V40.2016C41.9607 40.6712 41.7741 41.1216 41.442 41.4536C41.11 41.7857 40.6598 41.9722 40.1902 41.9722" fill="#0081A0"/>
<path id="Vector_3" d="M40.1904 47.4621C39.7209 47.4621 39.2703 47.2755 38.9383 46.9435C38.6062 46.6114 38.4199 46.1611 38.4199 45.6915V15.739C38.5298 14.1273 39.2473 12.6174 40.4278 11.5146C41.6084 10.4118 43.1635 9.79834 44.779 9.79834C46.3945 9.79834 47.95 10.4118 49.1306 11.5146C50.3111 12.6174 51.0286 14.1273 51.1385 15.739V40.7043C51.1712 40.958 51.1495 41.2158 51.0747 41.4604C50.9999 41.7051 50.8737 41.931 50.7048 42.1231C50.5358 42.3152 50.328 42.4691 50.0949 42.5745C49.8618 42.68 49.609 42.7345 49.3532 42.7345C49.0974 42.7345 48.8446 42.68 48.6115 42.5745C48.3784 42.4691 48.1706 42.3152 48.0016 42.1231C47.8327 41.931 47.7064 41.7051 47.6317 41.4604C47.5569 41.2158 47.5352 40.958 47.5679 40.7043V15.739C47.5679 14.9955 47.2723 14.2824 46.7466 13.7567C46.2208 13.231 45.5078 12.9356 44.7642 12.9356C44.0207 12.9356 43.3077 13.231 42.7819 13.7567C42.2562 14.2824 41.961 14.9955 41.961 15.739V45.6915C41.961 46.1611 41.7743 46.6114 41.4422 46.9435C41.1102 47.2755 40.66 47.4621 40.1904 47.4621Z" fill="#0081A0"/>
<path id="Vector_4" d="M58.5155 43.8613C58.2805 43.8614 58.0479 43.8146 57.8311 43.7237C57.6143 43.6329 57.4177 43.4999 57.2529 43.3323C57.0881 43.1648 56.9583 42.9661 56.8711 42.7479C56.7839 42.5296 56.7411 42.2962 56.745 42.0612V24.0307C56.745 23.2872 56.4498 22.5741 55.924 22.0484C55.3983 21.5226 54.6852 21.2273 53.9417 21.2273C53.1982 21.2273 52.4851 21.5226 51.9594 22.0484C51.4336 22.5741 51.1381 23.2872 51.1381 24.0307V40.7333C51.0821 41.1673 50.8701 41.5661 50.5415 41.8551C50.2129 42.144 49.7904 42.3034 49.3528 42.3034C48.9152 42.3034 48.4926 42.144 48.164 41.8551C47.8354 41.5661 47.6234 41.1673 47.5675 40.7333V24.0307C47.5081 23.1592 47.6285 22.2847 47.9212 21.4616C48.2139 20.6385 48.6725 19.8844 49.2688 19.246C49.8652 18.6076 50.5864 18.0987 51.3877 17.7507C52.189 17.4027 53.0534 17.2231 53.9269 17.2231C54.8005 17.2231 55.6645 17.4027 56.4658 17.7507C57.2671 18.0987 57.9883 18.6076 58.5847 19.246C59.181 19.8844 59.64 20.6385 59.9327 21.4616C60.2253 22.2847 60.3454 23.1592 60.286 24.0307V42.0612C60.29 42.2962 60.2472 42.5296 60.16 42.7479C60.0727 42.9661 59.9429 43.1648 59.7781 43.3323C59.6133 43.4999 59.4167 43.6329 59.2 43.7237C58.9832 43.8146 58.7505 43.8614 58.5155 43.8613Z" fill="#0081A0"/>
<path id="Vector_5" d="M58.5164 87.2104H23.7538C23.2842 87.2104 22.834 87.0238 22.502 86.6918C22.1699 86.3597 21.9832 85.9094 21.9832 85.4398V73.6359C21.9769 72.41 21.573 71.2192 20.8323 70.2423L1.32635 44.2736C0.602221 43.3044 0.155582 42.1565 0.0338565 40.9528C-0.0878691 39.7491 0.120002 38.5349 0.635436 37.4404C1.15087 36.3459 1.95419 35.4122 2.95962 34.7393C3.96506 34.0664 5.13486 33.6797 6.34324 33.6206C7.29778 33.5713 8.25151 33.7306 9.13825 34.0873C10.025 34.4441 10.8234 34.9896 11.4779 35.6862C18.9144 43.5063 20.8914 45.513 20.8914 45.5426C21.0601 45.705 21.1942 45.8997 21.2858 46.1152C21.3775 46.3307 21.4249 46.5625 21.4249 46.7967C21.4249 47.0309 21.3775 47.2627 21.2858 47.4781C21.1942 47.6936 21.0601 47.8884 20.8914 48.0508C20.7269 48.2159 20.5317 48.3469 20.3165 48.4363C20.1012 48.5256 19.8705 48.5716 19.6374 48.5716C19.4044 48.5716 19.1736 48.5256 18.9584 48.4363C18.7432 48.3469 18.5476 48.2159 18.3831 48.0508L8.96966 38.1945C8.67105 37.8617 8.30054 37.6012 7.88646 37.4325C7.47237 37.2638 7.02536 37.1914 6.57919 37.2208C6.13472 37.2475 5.70056 37.3662 5.30435 37.5694C4.90813 37.7726 4.55841 38.0558 4.27734 38.4011C3.86322 38.9493 3.63937 39.6175 3.63937 40.3045C3.63937 40.9915 3.86322 41.6598 4.27734 42.2079L23.7833 68.147C24.9679 69.7545 25.6088 71.698 25.6129 73.6949V83.6102H56.8345V60.0024C56.8306 59.7674 56.8734 59.5339 56.9606 59.3157C57.0478 59.0974 57.1776 58.8988 57.3424 58.7312C57.5073 58.5637 57.7038 58.4306 57.9206 58.3398C58.1374 58.249 58.37 58.2022 58.605 58.2022C58.8401 58.2022 59.0727 58.249 59.2895 58.3398C59.5062 58.4306 59.7028 58.5637 59.8676 58.7312C60.0325 58.8988 60.1623 59.0974 60.2495 59.3157C60.3367 59.5339 60.3795 59.7674 60.3756 60.0024V85.4988C60.3796 85.7324 60.3367 85.9645 60.2491 86.1811C60.1616 86.3977 60.0311 86.5945 59.8658 86.7597C59.7006 86.9249 59.5039 87.0552 59.2873 87.1428C59.0707 87.2304 58.8387 87.2734 58.605 87.2694" fill="#0081A0"/>
<path id="Vector_6" d="M59.9896 108.044H22.2467C21.2997 108.044 20.3912 107.668 19.7215 106.998C19.0519 106.329 18.6758 105.42 18.6758 104.473V87.2102C18.6836 86.2683 19.0632 85.3676 19.732 84.7043C20.4008 84.0411 21.3048 83.6689 22.2467 83.6689H59.9896C60.9287 83.6689 61.8294 84.042 62.4935 84.7061C63.1576 85.3702 63.5309 86.271 63.5309 87.2102V104.473C63.531 105.415 63.1586 106.319 62.4953 106.988C61.832 107.657 60.9314 108.036 59.9896 108.044ZM22.2467 104.473H59.9896V87.2102H22.2467V104.473Z" fill="#0081A0"/>
<path id="Vector_7" d="M37.0031 97.6274H25.7597C25.3257 97.5715 24.9269 97.3594 24.6379 97.0308C24.349 96.7022 24.1895 96.2796 24.1895 95.842C24.1895 95.4044 24.349 94.9819 24.6379 94.6533C24.9269 94.3247 25.3257 94.1126 25.7597 94.0566H36.885C37.3189 94.1126 37.7177 94.3247 38.0067 94.6533C38.2957 94.9819 38.4548 95.4044 38.4548 95.842C38.4548 96.2796 38.2957 96.7022 38.0067 97.0308C37.7177 97.3594 37.3189 97.5715 36.885 97.6274" fill="#0081A0"/>
<path id="Vector_8" d="M60.0203 144.342H22.2184C21.9834 144.346 21.7497 144.303 21.5314 144.216C21.3132 144.129 21.1147 143.999 20.9471 143.834C20.7796 143.669 20.6464 143.473 20.5556 143.256C20.4648 143.039 20.4179 142.806 20.418 142.571V106.274C20.4179 106.039 20.4648 105.807 20.5556 105.59C20.6464 105.373 20.7796 105.177 20.9471 105.012C21.1147 104.847 21.3132 104.717 21.5314 104.63C21.7497 104.543 21.9834 104.5 22.2184 104.504H60.0203C60.4899 104.504 60.9404 104.69 61.2724 105.022C61.6045 105.354 61.7908 105.805 61.7908 106.274V115.452C61.7349 115.886 61.5229 116.285 61.1943 116.574C60.8657 116.863 60.4431 117.022 60.0055 117.022C59.5679 117.022 59.1454 116.863 58.8168 116.574C58.4882 116.285 58.2762 115.886 58.2202 115.452V108.045H23.9889V140.801H58.2202V136.374C58.1876 136.121 58.2092 135.863 58.284 135.618C58.3588 135.373 58.485 135.148 58.654 134.955C58.8229 134.763 59.0307 134.61 59.2638 134.504C59.4969 134.399 59.7497 134.344 60.0055 134.344C60.2613 134.344 60.5142 134.399 60.7472 134.504C60.9803 134.61 61.1885 134.763 61.3575 134.955C61.5264 135.148 61.6523 135.373 61.7271 135.618C61.8018 135.863 61.8235 136.121 61.7908 136.374V142.571C61.7908 143.041 61.6045 143.491 61.2724 143.823C60.9404 144.155 60.4899 144.342 60.0203 144.342Z" fill="#0081A0"/>
<path id="Vector_9" d="M60.0199 138.145C59.7849 138.149 59.5516 138.107 59.3333 138.019C59.1151 137.932 58.9162 137.802 58.7487 137.637C58.5811 137.473 58.4483 137.276 58.3575 137.059C58.2666 136.843 58.2198 136.61 58.2199 136.375V133.217C58.1872 132.964 58.2088 132.706 58.2836 132.461C58.3584 132.217 58.4846 131.991 58.6536 131.799C58.8225 131.607 59.0303 131.453 59.2634 131.347C59.4965 131.242 59.7493 131.187 60.0051 131.187C60.261 131.187 60.5138 131.242 60.7468 131.347C60.9799 131.453 61.1881 131.607 61.3571 131.799C61.526 131.991 61.6519 132.217 61.7267 132.461C61.8014 132.706 61.8231 132.964 61.7904 133.217V136.375C61.7904 136.845 61.6041 137.295 61.2721 137.627C60.94 137.959 60.4895 138.145 60.0199 138.145ZM60.0199 126.076C59.7849 126.08 59.5516 126.037 59.3333 125.95C59.1151 125.863 58.9162 125.733 58.7487 125.568C58.5811 125.403 58.4483 125.207 58.3575 124.99C58.2666 124.773 58.2198 124.54 58.2199 124.305V115.452C58.2758 115.018 58.4878 114.62 58.8164 114.331C59.145 114.042 59.5676 113.882 60.0051 113.882C60.4427 113.882 60.8653 114.042 61.1939 114.331C61.5225 114.62 61.7345 115.018 61.7904 115.452V124.305C61.7904 124.775 61.6041 125.225 61.2721 125.557C60.94 125.889 60.4895 126.076 60.0199 126.076Z" fill="#0081A0"/>
<path id="Vector_10" d="M41.1042 67.2326C40.8507 67.2341 40.6004 67.1793 40.3707 67.0721C40.1411 66.965 39.938 66.8081 39.7764 66.6129C39.6224 66.4371 39.5047 66.2324 39.4302 66.0108C39.3557 65.7892 39.3258 65.5551 39.3423 65.3219C39.3587 65.0887 39.4211 64.8611 39.526 64.6521C39.6309 64.4432 39.7764 64.2571 39.9536 64.1046L43.3174 61.1536C43.6735 60.8445 44.138 60.6895 44.6085 60.7227C45.0789 60.7559 45.5169 60.9745 45.826 61.3307C46.1352 61.6868 46.2901 62.1511 46.2569 62.6215C46.2236 63.0919 46.0049 63.5299 45.6488 63.839L42.2551 66.79C41.9398 67.0754 41.5295 67.2332 41.1042 67.2326Z" fill="#0081A0"/>
<path id="Vector_11" d="M50.253 59.2954C50.0027 59.2947 49.7554 59.2419 49.5267 59.1403C49.2981 59.0387 49.093 58.8905 48.9248 58.7052C48.7708 58.5293 48.6531 58.3247 48.5786 58.1031C48.5041 57.8815 48.4743 57.6474 48.4907 57.4142C48.5072 57.181 48.5699 56.9533 48.6748 56.7444C48.7797 56.5355 48.9248 56.3494 49.102 56.1969L52.4662 53.2459C52.6425 53.0928 52.847 52.976 53.0685 52.902C53.29 52.8281 53.524 52.7985 53.7569 52.815C53.9898 52.8314 54.2173 52.8935 54.4262 52.9979C54.6351 53.1022 54.8214 53.2466 54.9745 53.4229C55.1275 53.5993 55.2442 53.804 55.3181 54.0255C55.3921 54.247 55.4217 54.4809 55.4053 54.7138C55.3889 54.9467 55.3266 55.1741 55.2223 55.383C55.118 55.5919 54.9736 55.7782 54.7972 55.9313L51.4331 58.8823C51.1016 59.1566 50.6832 59.3031 50.253 59.2954Z" fill="#0081A0"/>
</g>
<g id="Vector_12">
<mask id="path-12-inside-1_5657_36925" fill="white">
<path d="M40.9355 77C40.5142 77.0022 40.1068 76.8461 39.7908 76.5612L22.1348 60.6487C20.276 58.9829 18.9591 56.7766 18.3608 54.3248C17.7624 51.8731 17.911 49.293 18.7866 46.93C19.3861 44.5252 20.7975 42.414 22.7713 40.9691C24.7451 39.5241 27.1546 38.8382 29.575 39.0323C35.7561 39.0323 41.0215 45.526 41.0215 45.526C44.2478 41.8035 48.5 39.0323 53.6127 39.12C55.8784 39.2628 58.0427 40.1306 59.7991 41.6006C61.5556 43.0705 62.815 45.068 63.3992 47.3102C64.1365 49.6388 64.1966 52.1361 63.5718 54.4987C62.9469 56.8614 61.6641 58.9877 59.8795 60.6194L42.1662 76.5612C41.8475 76.8415 41.4418 76.9969 41.0215 77"/>
</mask>
<path d="M40.9355 77C40.5142 77.0022 40.1068 76.8461 39.7908 76.5612L22.1348 60.6487C20.276 58.9829 18.9591 56.7766 18.3608 54.3248C17.7624 51.8731 17.911 49.293 18.7866 46.93C19.3861 44.5252 20.7975 42.414 22.7713 40.9691C24.7451 39.5241 27.1546 38.8382 29.575 39.0323C35.7561 39.0323 41.0215 45.526 41.0215 45.526C44.2478 41.8035 48.5 39.0323 53.6127 39.12C55.8784 39.2628 58.0427 40.1306 59.7991 41.6006C61.5556 43.0705 62.815 45.068 63.3992 47.3102C64.1365 49.6388 64.1966 52.1361 63.5718 54.4987C62.9469 56.8614 61.6641 58.9877 59.8795 60.6194L42.1662 76.5612C41.8475 76.8415 41.4418 76.9969 41.0215 77" fill="#0081A0"/>
<path d="M40.9515 79.9999C42.6084 79.9911 43.9443 78.6408 43.9355 76.984C43.9267 75.3272 42.5764 73.9912 40.9195 74L40.9515 79.9999ZM39.7908 76.5612L41.7996 74.333L41.7993 74.3327L39.7908 76.5612ZM22.1348 60.6487L24.1433 58.4202L24.137 58.4145L22.1348 60.6487ZM18.7866 46.93L21.5997 47.9723L21.6574 47.8167L21.6975 47.6557L18.7866 46.93ZM29.575 39.0323L29.3352 42.0227L29.4549 42.0323H29.575V39.0323ZM41.0215 45.526L38.6912 47.4154L40.9449 50.1948L43.2885 47.4908L41.0215 45.526ZM53.6127 39.12L53.8014 36.1259L53.7329 36.1216L53.6642 36.1204L53.6127 39.12ZM63.3992 47.3102L60.4961 48.0667L60.5157 48.1418L60.5391 48.2158L63.3992 47.3102ZM59.8795 60.6194L61.8864 62.8493L61.8951 62.8414L61.9038 62.8334L59.8795 60.6194ZM42.1662 76.5612L44.1474 78.814L44.1603 78.8026L44.1731 78.7911L42.1662 76.5612ZM40.9999 74.0001C39.343 74.012 38.0096 75.3648 38.0215 77.0216C38.0335 78.6784 39.3863 80.0118 41.0431 79.9999L40.9999 74.0001ZM40.9195 74C41.2536 73.9982 41.5662 74.1226 41.7996 74.333L37.7821 78.7894C38.6474 79.5695 39.7749 80.0062 40.9515 79.9999L40.9195 74ZM41.7993 74.3327L24.1433 58.4202L20.1264 62.8772L37.7824 78.7897L41.7993 74.3327ZM24.137 58.4145C22.7341 57.1574 21.7317 55.4841 21.2752 53.6136L15.4463 55.0361C16.1865 58.0691 17.8179 60.8084 20.1327 62.8828L24.137 58.4145ZM21.2752 53.6136C20.8186 51.7425 20.9324 49.7732 21.5997 47.9723L15.9735 45.8876C14.8896 48.8128 14.7062 52.0037 15.4463 55.0361L21.2752 53.6136ZM21.6975 47.6557C22.1297 45.922 23.1437 44.4144 24.5434 43.3898L20.9992 38.5484C18.4513 40.4137 16.6425 43.1284 15.8757 46.2043L21.6975 47.6557ZM24.5434 43.3898C25.9413 42.3664 27.6379 41.8866 29.3352 42.0227L29.8147 36.0419C26.6713 35.7898 23.5489 36.6819 20.9992 38.5484L24.5434 43.3898ZM29.575 42.0323C31.6693 42.0323 33.8741 43.1705 35.7753 44.6479C36.6832 45.3535 37.43 46.065 37.9482 46.5995C38.2057 46.8651 38.4023 47.0824 38.5297 47.2274C38.5933 47.2997 38.6393 47.3536 38.6666 47.3861C38.6803 47.4023 38.6893 47.4131 38.6934 47.4181C38.6955 47.4207 38.6964 47.4217 38.696 47.4213C38.6958 47.4211 38.6953 47.4205 38.6945 47.4195C38.6941 47.419 38.6937 47.4184 38.6931 47.4178C38.6929 47.4174 38.6924 47.4168 38.6922 47.4167C38.6917 47.4161 38.6912 47.4154 41.0215 45.526C43.3517 43.6365 43.3511 43.6358 43.3506 43.6351C43.3504 43.6349 43.3498 43.6341 43.3493 43.6336C43.3485 43.6325 43.3475 43.6314 43.3465 43.6301C43.3444 43.6275 43.342 43.6246 43.3393 43.6213C43.3338 43.6146 43.327 43.6063 43.3189 43.5966C43.3028 43.577 43.2814 43.5514 43.255 43.52C43.2022 43.4573 43.1291 43.3718 43.0366 43.2666C42.8519 43.0564 42.5889 42.7664 42.2561 42.4231C41.594 41.7401 40.6381 40.8282 39.457 39.9103C37.1802 38.1409 33.6617 36.0323 29.575 36.0323V42.0323ZM43.2885 47.4908C46.1811 44.1533 49.6557 42.0525 53.5612 42.1196L53.6642 36.1204C47.3443 36.012 42.3145 39.4536 38.7545 43.5611L43.2885 47.4908ZM53.4239 42.1141C55.0456 42.2163 56.6028 42.8376 57.8738 43.9012L61.7245 39.2999C59.4825 37.4236 56.7112 36.3094 53.8014 36.1259L53.4239 42.1141ZM57.8738 43.9012C59.1456 44.9656 60.0673 46.4207 60.4961 48.0667L66.3023 46.5538C65.5627 43.7153 63.9656 41.1754 61.7245 39.2999L57.8738 43.9012ZM60.5391 48.2158C61.1046 50.0018 61.1509 51.919 60.6715 53.7317L66.4721 55.2658C67.2424 52.3531 67.1683 49.2758 66.2593 46.4047L60.5391 48.2158ZM60.6715 53.7317C60.1922 55.5441 59.2103 57.1662 57.8551 58.4054L61.9038 62.8334C64.1178 60.8092 65.7017 58.1787 66.4721 55.2658L60.6715 53.7317ZM57.8726 58.3895L40.1593 74.3313L44.1731 78.7911L61.8864 62.8493L57.8726 58.3895ZM40.185 74.3085C40.4029 74.1169 40.6911 74.0023 40.9999 74.0001L41.0431 79.9999C42.1925 79.9916 43.2922 79.5661 44.1474 78.814L40.185 74.3085Z" fill="white" mask="url(#path-12-inside-1_5657_36925)"/>
</g>
</g>
</svg>
