<svg width="115" height="146" viewBox="0 0 115 146" fill="none" xmlns="http://www.w3.org/2000/svg">
<g id="Group 48">
<path id="Vector" d="M33.2226 31.4375C30.7071 31.4375 28.248 30.6916 26.1564 29.294C24.0648 27.8965 22.4347 25.91 21.472 23.5859C20.5094 21.2619 20.2576 18.7046 20.7483 16.2374C21.2391 13.7702 22.4504 11.5039 24.2292 9.7252C26.0079 7.94645 28.2742 6.73517 30.7414 6.24441C33.2086 5.75366 35.766 6.00546 38.09 6.96811C40.4141 7.93076 42.4003 9.56101 43.7978 11.6526C45.1954 13.7442 45.9415 16.2032 45.9415 18.7187C45.9415 22.0919 44.6013 25.327 42.2161 27.7123C39.8309 30.0975 36.5959 31.4375 33.2226 31.4375ZM33.2226 9.57066C31.4062 9.57067 29.6306 10.1097 28.1207 11.1195C26.6109 12.1292 25.4348 13.5643 24.7411 15.243C24.0473 16.9217 23.8673 18.7685 24.2238 20.5496C24.5803 22.3307 25.4571 23.9659 26.7436 25.2482C28.03 26.5305 29.6681 27.4023 31.4503 27.7531C33.2325 28.1038 35.0789 27.9179 36.7554 27.2187C38.4318 26.5196 39.8632 25.3386 40.8681 23.8255C41.873 22.3124 42.406 20.5351 42.4002 18.7187C42.3923 16.2898 41.422 13.9631 39.7017 12.2483C37.9814 10.5336 35.6516 9.57065 33.2226 9.57066Z" fill="#0081A0"/>
<path id="Vector_2" d="M18.4971 83.345C18.0275 83.345 17.5773 83.1585 17.2453 82.8265C16.9132 82.4944 16.7266 82.044 16.7266 81.5744V51.5334C16.7825 51.0994 16.9945 50.7007 17.3231 50.4117C17.6517 50.1227 18.0743 49.9634 18.5118 49.9634C18.9494 49.9634 19.372 50.1227 19.7006 50.4117C20.0292 50.7007 20.2412 51.0994 20.2971 51.5334V81.5744C20.2972 81.8094 20.2504 82.0422 20.1595 82.2589C20.0687 82.4757 19.9359 82.6722 19.7683 82.837C19.6008 83.0018 19.4019 83.1316 19.1837 83.2189C18.9654 83.3061 18.7321 83.3489 18.4971 83.345Z" fill="#0081A0"/>
<path id="Vector_3" d="M47.601 145.334H36.5348C36.2998 145.338 36.0665 145.295 35.8482 145.208C35.63 145.121 35.4315 144.991 35.2639 144.826C35.0964 144.661 34.9632 144.465 34.8724 144.248C34.7815 144.031 34.7347 143.798 34.7348 143.563V98.1477C34.7346 97.8762 34.675 97.608 34.56 97.362C34.4451 97.116 34.2779 96.8981 34.0698 96.7237C33.8616 96.5493 33.6178 96.4226 33.3554 96.3525C33.0931 96.2825 32.8184 96.2707 32.5511 96.3181C32.1017 96.4321 31.7047 96.6961 31.4257 97.0663C31.1467 97.4366 31.0023 97.8909 31.0165 98.3543V143.563C31.0165 144.033 30.8302 144.483 30.4981 144.815C30.1661 145.147 29.7156 145.334 29.246 145.334H18.1502C17.6807 145.334 17.2305 145.147 16.8985 144.815C16.5664 144.483 16.3797 144.033 16.3797 143.563V87.6718C15.3097 88.266 14.1016 88.5664 12.878 88.5425C11.6543 88.5187 10.4586 88.1715 9.41257 87.5361C8.36653 86.9007 7.50713 85.9997 6.92196 84.9248C6.33678 83.8498 6.04669 82.6392 6.08082 81.4157V46.6236C6.08861 43.8084 7.2105 41.1108 9.20111 39.1202C11.1917 37.1296 13.8891 36.0078 16.7043 36H47.4241C48.8584 35.9966 50.2783 36.2853 51.5974 36.8485C52.9165 37.4116 54.1071 38.2375 55.0966 39.2757L68.612 55.152C69.0134 55.6232 69.5106 56.0037 70.0702 56.2682C70.6298 56.5328 71.2395 56.6753 71.8584 56.6865L84.5474 56.834C86.3944 56.834 88.166 57.5677 89.472 58.8738C90.7781 60.1798 91.5117 61.9513 91.5117 63.7983C91.5117 65.6454 90.7781 67.4168 89.472 68.7228C88.166 70.0289 86.3944 70.7626 84.5474 70.7626H68.5237C66.5046 70.7668 64.5607 69.9957 63.0937 68.6085L49.4601 55.6536V143.504C49.4601 143.974 49.2738 144.424 48.9418 144.756C48.6097 145.088 48.1592 145.275 47.6896 145.275L47.601 145.334ZM38.3939 141.704H45.9191V51.5812C45.9152 51.2358 46.0141 50.8971 46.2033 50.6081C46.3925 50.319 46.6633 50.0928 46.9814 49.9582C47.2979 49.8192 47.6481 49.7758 47.989 49.8335C48.3298 49.8912 48.6465 50.0473 48.8996 50.2828L65.5432 66.0706C66.3405 66.8257 67.3961 67.2479 68.4942 67.2509H84.6065C85.5065 67.2509 86.3699 66.8934 87.0063 66.257C87.6427 65.6206 88.0002 64.7574 88.0002 63.8573C88.0002 62.9573 87.6427 62.0941 87.0063 61.4577C86.3699 60.8212 85.5065 60.4637 84.6065 60.4637L71.9171 60.2867C70.791 60.2802 69.6798 60.0286 68.6606 59.5496C67.6415 59.0706 66.7387 58.3756 66.0151 57.5127L52.5884 41.6954C51.2505 40.3557 49.4352 39.6021 47.5419 39.6002H16.7338C14.8633 39.6002 13.0695 40.3433 11.7468 41.666C10.4242 42.9886 9.68094 44.7826 9.68094 46.6531V81.4157C9.65498 82.1841 9.88418 82.9395 10.3326 83.5641C10.781 84.1887 11.4233 84.6472 12.1597 84.8683C12.6588 85.0045 13.1825 85.0237 13.6903 84.9244C14.198 84.8252 14.6761 84.6102 15.0872 84.2962C15.4983 83.9821 15.8316 83.5775 16.0609 83.1137C16.2902 82.65 16.4093 82.1396 16.4093 81.6222C16.3766 81.3685 16.3983 81.1107 16.473 80.8661C16.5478 80.6215 16.674 80.3956 16.843 80.2035C17.0119 80.0114 17.2198 79.8575 17.4528 79.7521C17.6859 79.6467 17.9387 79.5922 18.1946 79.5922C18.4504 79.5922 18.7032 79.6467 18.9363 79.7521C19.1693 79.8575 19.3772 80.0114 19.5461 80.2035C19.7151 80.3956 19.8413 80.6215 19.9161 80.8661C19.9908 81.1107 20.0125 81.3685 19.9798 81.6222V141.763H27.4755V98.3543C27.4597 97.0428 27.9066 95.7678 28.7377 94.7531C29.5688 93.7385 30.7312 93.0493 32.0201 92.8065C32.7969 92.6732 33.5934 92.7125 34.3533 92.9216C35.1132 93.1307 35.8178 93.5044 36.417 94.0164C37.0169 94.525 37.499 95.1579 37.8302 95.8712C38.1614 96.5845 38.3334 97.3613 38.3349 98.1477L38.3939 141.704Z" fill="#0081A0"/>
<path id="Vector_4" d="M64.2958 145.287H59.8398C59.4058 145.231 59.007 145.019 58.718 144.69C58.429 144.362 58.2695 143.939 58.2695 143.502C58.2695 143.064 58.429 142.642 58.718 142.313C59.007 141.984 59.4058 141.772 59.8398 141.716H64.2958C64.7298 141.772 65.1286 141.984 65.4175 142.313C65.7065 142.642 65.866 143.064 65.866 143.502C65.866 143.939 65.7065 144.362 65.4175 144.69C65.1286 145.019 64.7298 145.231 64.2958 145.287Z" fill="#0081A0"/>
<path id="Vector_5" d="M99.354 145.287H90.501C90.067 145.231 89.6682 145.019 89.3793 144.69C89.0903 144.362 88.9308 143.939 88.9308 143.502C88.9308 143.064 89.0903 142.642 89.3793 142.313C89.6682 141.984 90.067 141.772 90.501 141.716H99.354C99.7879 141.772 100.187 141.984 100.476 142.313C100.765 142.642 100.924 143.064 100.924 143.502C100.924 143.939 100.765 144.362 100.476 144.69C100.187 145.019 99.7879 145.231 99.354 145.287ZM81.8545 145.287H73.0015C72.5675 145.231 72.1687 145.019 71.8798 144.69C71.5908 144.362 71.4316 143.939 71.4316 143.502C71.4316 143.064 71.5908 142.642 71.8798 142.313C72.1687 141.984 72.5675 141.772 73.0015 141.716H81.8545C82.2885 141.772 82.6872 141.984 82.9762 142.313C83.2652 142.642 83.4247 143.064 83.4247 143.502C83.4247 143.939 83.2652 144.362 82.9762 144.69C82.6872 145.019 82.2885 145.231 81.8545 145.287Z" fill="#0081A0"/>
<path id="Vector_6" d="M112.544 145.286H108.118C107.864 145.318 107.606 145.297 107.362 145.222C107.117 145.147 106.891 145.021 106.699 144.852C106.507 144.683 106.353 144.475 106.248 144.242C106.142 144.009 106.088 143.756 106.088 143.5C106.088 143.245 106.142 142.992 106.248 142.759C106.353 142.525 106.507 142.318 106.699 142.149C106.891 141.98 107.117 141.854 107.362 141.779C107.606 141.704 107.864 141.682 108.118 141.715H112.544C112.798 141.682 113.056 141.704 113.3 141.779C113.545 141.854 113.771 141.98 113.963 142.149C114.155 142.318 114.309 142.525 114.415 142.759C114.52 142.992 114.574 143.245 114.574 143.5C114.574 143.756 114.52 144.009 114.415 144.242C114.309 144.475 114.155 144.683 113.963 144.852C113.771 145.021 113.545 145.147 113.3 145.222C113.056 145.297 112.798 145.318 112.544 145.286Z" fill="#0081A0"/>
<path id="Vector_7" d="M59.899 145.286H2.03024C1.77652 145.318 1.51877 145.297 1.27412 145.222C1.02948 145.147 0.803403 145.021 0.611306 144.852C0.419209 144.683 0.265356 144.475 0.159941 144.242C0.0545263 144.009 0 143.756 0 143.5C0 143.245 0.0545263 142.992 0.159941 142.759C0.265356 142.525 0.419209 142.318 0.611306 142.149C0.803403 141.98 1.02948 141.854 1.27412 141.779C1.51877 141.704 1.77652 141.682 2.03024 141.715H59.899C60.333 141.771 60.7318 141.983 61.0207 142.312C61.3097 142.64 61.4692 143.063 61.4692 143.5C61.4692 143.938 61.3097 144.36 61.0207 144.689C60.7318 145.018 60.333 145.23 59.899 145.286Z" fill="#0081A0"/>
<g id="Vector_8">
<mask id="path-8-inside-1_5657_36895" fill="white">
<path d="M85.9996 42C85.4868 42.0025 84.9907 41.8299 84.6061 41.515L63.1118 23.9275C60.8489 22.0864 59.2458 19.6478 58.5173 16.938C57.7889 14.2282 57.9698 11.3765 59.0357 8.7647C59.7656 6.10676 61.4837 3.77342 63.8866 2.17635C66.2896 0.579286 69.2229 -0.178817 72.1694 0.0356518C79.6942 0.0356518 85.9996 7 85.9996 7C89.9274 2.88566 92.5781 0.133126 101.078 0.133126C103.836 0.290987 106.826 1.24964 108.964 2.8743C111.102 4.49896 112.635 6.70675 113.347 9.18501C114.244 11.7587 114.317 14.5188 113.557 17.1302C112.796 19.7415 111.234 22.0917 109.062 23.8951L87.4978 41.515C87.1099 41.8248 86.616 41.9966 86.1043 42"/>
</mask>
<path d="M85.9996 42C85.4868 42.0025 84.9907 41.8299 84.6061 41.515L63.1118 23.9275C60.8489 22.0864 59.2458 19.6478 58.5173 16.938C57.7889 14.2282 57.9698 11.3765 59.0357 8.7647C59.7656 6.10676 61.4837 3.77342 63.8866 2.17635C66.2896 0.579286 69.2229 -0.178817 72.1694 0.0356518C79.6942 0.0356518 85.9996 7 85.9996 7C89.9274 2.88566 92.5781 0.133126 101.078 0.133126C103.836 0.290987 106.826 1.24964 108.964 2.8743C111.102 4.49896 112.635 6.70675 113.347 9.18501C114.244 11.7587 114.317 14.5188 113.557 17.1302C112.796 19.7415 111.234 22.0917 109.062 23.8951L87.4978 41.515C87.1099 41.8248 86.616 41.9966 86.1043 42" fill="#0081A0"/>
<path d="M86.0142 44.9999C87.671 44.9919 89.0076 43.6423 88.9996 41.9855C88.9916 40.3286 87.642 38.992 85.9851 39L86.0142 44.9999ZM84.6061 41.515L86.5062 39.1935L86.5059 39.1932L84.6061 41.515ZM63.1118 23.9275L65.0116 21.6057L65.0052 21.6004L63.1118 23.9275ZM59.0357 8.7647L61.8133 9.89827L61.8811 9.73212L61.9286 9.55907L59.0357 8.7647ZM72.1694 0.0356518L71.9516 3.02774L72.0604 3.03565H72.1694V0.0356518ZM85.9996 7L83.7757 9.0135L85.9415 11.4056L88.1696 9.07154L85.9996 7ZM101.078 0.133126L101.25 -2.86197L101.164 -2.86687H101.078V0.133126ZM113.347 9.18501L110.463 10.0126L110.486 10.0934L110.514 10.1729L113.347 9.18501ZM109.062 23.8951L110.96 26.2182L110.969 26.2109L110.978 26.2034L109.062 23.8951ZM87.4978 41.515L89.3697 43.8594L89.3829 43.8488L89.396 43.8381L87.4978 41.515ZM86.0846 39C84.4278 39.0109 83.0935 40.3628 83.1043 42.0196C83.1152 43.6764 84.4671 45.0107 86.1239 44.9999L86.0846 39ZM85.9851 39C86.1456 38.9992 86.3324 39.0513 86.5062 39.1935L82.7059 43.8366C83.649 44.6085 84.8279 45.0057 86.0142 44.9999L85.9851 39ZM86.5059 39.1932L65.0116 21.6057L61.212 26.2493L82.7063 43.8368L86.5059 39.1932ZM65.0052 21.6004C63.2104 20.1402 61.9724 18.2348 61.4145 16.1592L55.6202 17.7168C56.5191 21.0607 58.4874 24.0326 61.2185 26.2546L65.0052 21.6004ZM61.4145 16.1592C60.8573 14.0865 60.9938 11.9064 61.8133 9.89827L56.2581 7.63113C54.9458 10.8466 54.7205 14.3699 55.6202 17.7168L61.4145 16.1592ZM61.9286 9.55907C62.4572 7.63421 63.7164 5.8917 65.5472 4.67484L62.2261 -0.322134C59.2511 1.65514 57.074 4.57931 56.1428 7.97033L61.9286 9.55907ZM65.5472 4.67484C67.3819 3.45546 69.6514 2.86031 71.9516 3.02774L72.3872 -2.95643C68.7943 -3.21795 65.1972 -2.29689 62.2261 -0.322134L65.5472 4.67484ZM72.1694 3.03565C75.0478 3.03565 77.8977 4.3927 80.1996 5.98505C81.3186 6.75911 82.233 7.53672 82.8642 8.11822C83.1783 8.40759 83.4182 8.64465 83.5741 8.80333C83.652 8.88257 83.7086 8.94194 83.7426 8.97814C83.7597 8.99623 83.7711 9.00851 83.7766 9.01455C83.7794 9.01757 83.7807 9.01902 83.7806 9.01887C83.7805 9.01879 83.7801 9.01831 83.7793 9.01742C83.7789 9.01697 83.7784 9.01642 83.7778 9.01577C83.7775 9.01544 83.777 9.01488 83.7768 9.01471C83.7763 9.01412 83.7757 9.0135 85.9996 7C88.2236 4.9865 88.223 4.98583 88.2223 4.98513C88.2221 4.98486 88.2214 4.98413 88.2209 4.98359C88.22 4.98252 88.2189 4.98134 88.2177 4.98005C88.2154 4.97747 88.2126 4.97446 88.2095 4.97104C88.2032 4.96419 88.1954 4.95565 88.186 4.9455C88.1673 4.92518 88.1423 4.89835 88.1114 4.86543C88.0494 4.79962 87.9632 4.70936 87.8539 4.59817C87.6356 4.37599 87.3241 4.06896 86.9295 3.70542C86.1433 2.98111 85.011 2.01763 83.613 1.0506C80.8811 -0.83922 76.8158 -2.96435 72.1694 -2.96435V3.03565ZM88.1696 9.07154C90.189 6.95615 91.5212 5.60128 93.255 4.66056C94.9057 3.76494 97.1612 3.13313 101.078 3.13313V-2.86687C96.495 -2.86687 93.1752 -2.12242 90.3936 -0.613187C87.6951 0.850942 85.738 2.92951 83.8297 4.92846L88.1696 9.07154ZM100.907 3.12823C103.18 3.25833 105.568 4.06139 107.149 5.26302L110.779 0.485573C108.084 -1.56211 104.493 -2.67636 101.25 -2.86197L100.907 3.12823ZM107.149 5.26302C108.795 6.51354 109.938 8.18338 110.463 10.0126L116.23 8.35745C115.333 5.23013 113.41 2.48437 110.779 0.485573L107.149 5.26302ZM110.514 10.1729C111.207 12.159 111.262 14.2806 110.677 16.2912L116.437 17.9692C117.373 14.7571 117.282 11.3584 116.179 8.19716L110.514 10.1729ZM110.677 16.2912C110.09 18.3045 108.876 20.1503 107.146 21.5868L110.978 26.2034C113.593 24.033 115.502 21.1786 116.437 17.9692L110.677 16.2912ZM107.164 21.572L85.5996 39.1919L89.396 43.8381L110.96 26.2182L107.164 21.572ZM85.6259 39.1707C85.7818 39.0462 85.9455 39.0009 86.0846 39L86.1239 44.9999C87.2864 44.9923 88.438 44.6033 89.3697 43.8594L85.6259 39.1707Z" fill="#0081A0" mask="url(#path-8-inside-1_5657_36895)"/>
</g>
</g>
</svg>
